<svg width="20" height="20" viewBox="0 0 20 20" fill="none" xmlns="http://www.w3.org/2000/svg">
<g clip-path="url(#clip0_641_1993)">
<g filter="url(#filter0_d_641_1993)">
<path d="M-3.29443 9.88239C-2.2513 4.39219 -1.20816 4.39219 -0.165022 9.88239C0.878116 15.3726 1.92125 15.3726 2.96439 9.88239C4.00753 4.39219 5.05066 4.39219 6.0938 9.88239C7.13694 15.3726 8.18008 15.3726 9.22321 9.88239C10.2664 4.39219 11.3095 4.39219 12.3526 9.88239C13.3958 15.3726 14.4389 15.3726 15.482 9.88239C16.5252 4.39219 17.5683 4.39219 18.6114 9.88239C19.6546 15.3726 20.6977 15.3726 21.7409 9.88239C22.784 4.39219 23.8271 4.39219 24.8703 9.88239C25.9134 15.3726 26.9565 15.3726 27.9997 9.88239" stroke="white"/>
</g>
</g>
<rect x="0.5" y="0.5" width="18.7647" height="18.7647" rx="1.14706" stroke="white"/>
<defs>
<filter id="filter0_d_641_1993" x="-7.07976" y="1.97062" width="38.8648" height="15.8235" filterUnits="userSpaceOnUse" color-interpolation-filters="sRGB">
<feFlood flood-opacity="0" result="BackgroundImageFix"/>
<feColorMatrix in="SourceAlpha" type="matrix" values="0 0 0 0 0 0 0 0 0 0 0 0 0 0 0 0 0 0 127 0" result="hardAlpha"/>
<feOffset/>
<feGaussianBlur stdDeviation="1.64706"/>
<feComposite in2="hardAlpha" operator="out"/>
<feColorMatrix type="matrix" values="0 0 0 0 1 0 0 0 0 1 0 0 0 0 1 0 0 0 0.25 0"/>
<feBlend mode="normal" in2="BackgroundImageFix" result="effect1_dropShadow_641_1993"/>
<feBlend mode="normal" in="SourceGraphic" in2="effect1_dropShadow_641_1993" result="shape"/>
</filter>
<clipPath id="clip0_641_1993">
<rect width="19.7647" height="19.7647" rx="1.64706" fill="white"/>
</clipPath>
</defs>
</svg>
