<svg width="20" height="20" viewBox="0 0 20 20" fill="none" xmlns="http://www.w3.org/2000/svg">
<g clip-path="url(#clip0_724_3617)">
<g filter="url(#filter0_d_724_3617)">
<path d="M-2.5293 8.11765C-1.48616 2.62745 -0.443022 2.62745 0.600115 8.11765C1.64325 13.6078 2.68639 13.6078 3.72953 8.11765C4.77266 2.62745 5.8158 2.62745 6.85894 8.11765C7.90208 13.6078 8.94521 13.6078 9.98835 8.11765C11.0315 2.62745 12.0746 2.62745 13.1178 8.11765C14.1609 13.6078 15.204 13.6078 16.2472 8.11765C17.2903 2.62745 18.3334 2.62745 19.3766 8.11765C20.4197 13.6078 21.4629 13.6078 22.506 8.11765C23.5491 2.62745 24.5923 2.62745 25.6354 8.11765C26.6785 13.6078 27.7217 13.6078 28.7648 8.11765" stroke="#9AA3AB"/>
</g>
<g filter="url(#filter1_d_724_3617)">
<path d="M-5.5293 10.8824C-4.48616 5.39219 -3.44302 5.39219 -2.39989 10.8824C-1.35675 16.3726 -0.31361 16.3726 0.729527 10.8824C1.77266 5.39219 2.8158 5.39219 3.85894 10.8824C4.90208 16.3726 5.94521 16.3726 6.98835 10.8824C8.03149 5.39219 9.07462 5.39219 10.1178 10.8824C11.1609 16.3726 12.204 16.3726 13.2472 10.8824C14.2903 5.39219 15.3334 5.39219 16.3766 10.8824C17.4197 16.3726 18.4629 16.3726 19.506 10.8824C20.5491 5.39219 21.5923 5.39219 22.6354 10.8824C23.6785 16.3726 24.7217 16.3726 25.7648 10.8824" stroke="white"/>
</g>
</g>
<rect x="0.5" y="0.5" width="18.7647" height="18.7647" rx="1.14706" stroke="white"/>
<defs>
<filter id="filter0_d_724_3617" x="-6.31463" y="0.205882" width="38.8648" height="15.8235" filterUnits="userSpaceOnUse" color-interpolation-filters="sRGB">
<feFlood flood-opacity="0" result="BackgroundImageFix"/>
<feColorMatrix in="SourceAlpha" type="matrix" values="0 0 0 0 0 0 0 0 0 0 0 0 0 0 0 0 0 0 127 0" result="hardAlpha"/>
<feOffset/>
<feGaussianBlur stdDeviation="1.64706"/>
<feComposite in2="hardAlpha" operator="out"/>
<feColorMatrix type="matrix" values="0 0 0 0 1 0 0 0 0 1 0 0 0 0 1 0 0 0 0.25 0"/>
<feBlend mode="normal" in2="BackgroundImageFix" result="effect1_dropShadow_724_3617"/>
<feBlend mode="normal" in="SourceGraphic" in2="effect1_dropShadow_724_3617" result="shape"/>
</filter>
<filter id="filter1_d_724_3617" x="-9.31463" y="2.97062" width="38.8648" height="15.8235" filterUnits="userSpaceOnUse" color-interpolation-filters="sRGB">
<feFlood flood-opacity="0" result="BackgroundImageFix"/>
<feColorMatrix in="SourceAlpha" type="matrix" values="0 0 0 0 0 0 0 0 0 0 0 0 0 0 0 0 0 0 127 0" result="hardAlpha"/>
<feOffset/>
<feGaussianBlur stdDeviation="1.64706"/>
<feComposite in2="hardAlpha" operator="out"/>
<feColorMatrix type="matrix" values="0 0 0 0 1 0 0 0 0 1 0 0 0 0 1 0 0 0 0.25 0"/>
<feBlend mode="normal" in2="BackgroundImageFix" result="effect1_dropShadow_724_3617"/>
<feBlend mode="normal" in="SourceGraphic" in2="effect1_dropShadow_724_3617" result="shape"/>
</filter>
<clipPath id="clip0_724_3617">
<rect width="19.7647" height="19.7647" rx="1.64706" fill="white"/>
</clipPath>
</defs>
</svg>
