<svg width="42" height="42" viewBox="0 0 42 42" fill="none" xmlns="http://www.w3.org/2000/svg">
<g clip-path="url(#clip0_705_646)">
<rect x="1" y="1" width="40" height="40" rx="8" fill="#002077"/>
<g filter="url(#filter0_d_705_646)">
<path d="M6.5 17C5.05291 13.2376 0.5 16 0 22.5L-0.237461 24.2927C-1.98839 37.5113 8.00274 49.3743 21.3266 49.8968L27.0825 50.1225C37.8472 50.5447 46.4803 41.317 45.3431 30.6042C45.1381 28.6728 45.3111 26.7256 45.5073 24.7932C46.9266 10.82 35.6489 -0.100497 32 13.5C26.5 34 27 27.5 24 22.5C21.0062 17.5103 19.0746 22.4795 17.0627 27.6552L17.0502 27.6872C13.1693 37.6711 9 23.5 6.5 17Z" fill="#FF09E6"/>
<path d="M6.5 17C5.05291 13.2376 0.5 16 0 22.5L-0.237461 24.2927C-1.98839 37.5113 8.00274 49.3743 21.3266 49.8968L27.0825 50.1225C37.8472 50.5447 46.4803 41.317 45.3431 30.6042C45.1381 28.6728 45.3111 26.7256 45.5073 24.7932C46.9266 10.82 35.6489 -0.100497 32 13.5C26.5 34 27 27.5 24 22.5C21.0062 17.5103 19.0746 22.4795 17.0627 27.6552L17.0502 27.6872C13.1693 37.6711 9 23.5 6.5 17Z" stroke="#FFC7E2" stroke-width="2"/>
</g>
</g>
<rect x="1" y="1" width="40" height="40" rx="8" stroke="#041D32" stroke-width="2"/>
<defs>
<filter id="filter0_d_705_646" x="-5.03701" y="2.6702" width="55.2669" height="52.0663" filterUnits="userSpaceOnUse" color-interpolation-filters="sRGB">
<feFlood flood-opacity="0" result="BackgroundImageFix"/>
<feColorMatrix in="SourceAlpha" type="matrix" values="0 0 0 0 0 0 0 0 0 0 0 0 0 0 0 0 0 0 127 0" result="hardAlpha"/>
<feOffset/>
<feGaussianBlur stdDeviation="1.8"/>
<feComposite in2="hardAlpha" operator="out"/>
<feColorMatrix type="matrix" values="0 0 0 0 0.894118 0 0 0 0 0.403922 0 0 0 0 0.678431 0 0 0 1 0"/>
<feBlend mode="normal" in2="BackgroundImageFix" result="effect1_dropShadow_705_646"/>
<feBlend mode="normal" in="SourceGraphic" in2="effect1_dropShadow_705_646" result="shape"/>
</filter>
<clipPath id="clip0_705_646">
<rect x="1" y="1" width="40" height="40" rx="8" fill="white"/>
</clipPath>
</defs>
</svg>
