<svg width="32" height="32" viewBox="0 0 32 32" fill="none" xmlns="http://www.w3.org/2000/svg">
<path d="M22.6667 5.33333H20C19.2636 5.33333 18.6667 5.93029 18.6667 6.66667V25.3333C18.6667 26.0697 19.2636 26.6667 20 26.6667H22.6667C23.403 26.6667 24 26.0697 24 25.3333V6.66667C24 5.93029 23.403 5.33333 22.6667 5.33333Z" stroke="white" stroke-width="2" stroke-linecap="round" stroke-linejoin="round"/>
<path d="M12 5.33333H9.33333C8.59695 5.33333 8 5.93029 8 6.66667V25.3333C8 26.0697 8.59695 26.6667 9.33333 26.6667H12C12.7364 26.6667 13.3333 26.0697 13.3333 25.3333V6.66667C13.3333 5.93029 12.7364 5.33333 12 5.33333Z" stroke="white" stroke-width="2" stroke-linecap="round" stroke-linejoin="round"/>
</svg>
