<svg width="16" height="12" viewBox="0 0 16 12" fill="none" xmlns="http://www.w3.org/2000/svg">
<path d="M11 4.00018C11.4868 4.57717 11.75 5.27895 11.75 6.00018C11.75 6.72142 11.4868 7.42319 11 8.00018M13.523 10.2428C14.1498 9.6857 14.647 9.02426 14.9862 8.2963C15.3255 7.56834 15.5001 6.78812 15.5001 6.00018C15.5001 5.21224 15.3255 4.43202 14.9862 3.70406C14.647 2.97611 14.1498 2.31467 13.523 1.75751M7.25 1.13485C7.24985 1.04199 7.21876 0.951252 7.16065 0.874086C7.10254 0.796919 7.02001 0.736783 6.92349 0.701266C6.82697 0.665749 6.72077 0.656442 6.61831 0.674521C6.51584 0.6926 6.42169 0.737254 6.34775 0.802848L3.80975 3.05818C3.7118 3.14577 3.59528 3.2152 3.46692 3.26246C3.33856 3.30973 3.20093 3.33388 3.062 3.33351H1.25C1.05109 3.33351 0.860322 3.40375 0.71967 3.52878C0.579018 3.6538 0.5 3.82337 0.5 4.00018V8.00018C0.5 8.17699 0.579018 8.34656 0.71967 8.47159C0.860322 8.59661 1.05109 8.66685 1.25 8.66685H3.062C3.20093 8.66649 3.33856 8.69064 3.46692 8.7379C3.59528 8.78516 3.7118 8.8546 3.80975 8.94218L6.347 11.1982C6.42095 11.264 6.51523 11.3089 6.61789 11.3271C6.72056 11.3453 6.82699 11.336 6.92369 11.3004C7.0204 11.2647 7.10303 11.2044 7.16112 11.127C7.21921 11.0496 7.25015 10.9586 7.25 10.8655V1.13485Z" stroke="white" stroke-linecap="round" stroke-linejoin="round"/>
</svg>
