<svg width="33" height="32" viewBox="0 0 33 32" fill="none" xmlns="http://www.w3.org/2000/svg">
<path d="M23.1667 5.3335H20.5C19.7636 5.3335 19.1667 5.93045 19.1667 6.66683V25.3335C19.1667 26.0699 19.7636 26.6668 20.5 26.6668H23.1667C23.903 26.6668 24.5 26.0699 24.5 25.3335V6.66683C24.5 5.93045 23.903 5.3335 23.1667 5.3335Z" stroke="white" stroke-width="2" stroke-linecap="round" stroke-linejoin="round"/>
<path d="M12.5 5.3335H9.83333C9.09695 5.3335 8.5 5.93045 8.5 6.66683V25.3335C8.5 26.0699 9.09695 26.6668 9.83333 26.6668H12.5C13.2364 26.6668 13.8333 26.0699 13.8333 25.3335V6.66683C13.8333 5.93045 13.2364 5.3335 12.5 5.3335Z" stroke="white" stroke-width="2" stroke-linecap="round" stroke-linejoin="round"/>
</svg>
